<svg xmlns="http://www.w3.org/2000/svg" viewBox="0 0 512 512" role="img" aria-label="Niramaya logo">
  <defs>
    <radialGradient id="bg" cx="28%" cy="24%" r="90%">
      <stop offset="0%" stop-color="#9ec8ff"/>
      <stop offset="58%" stop-color="#b59aff"/>
      <stop offset="100%" stop-color="#d98af1"/>
    </radialGradient>
    <linearGradient id="wave" x1="0" y1="0" x2="1" y2="1">
      <stop offset="0%" stop-color="#ffffff" stop-opacity="0.2"/>
      <stop offset="100%" stop-color="#ffffff" stop-opacity="0"/>
    </linearGradient>
  </defs>
  <circle cx="256" cy="256" r="246" fill="url(#bg)"/>
  <path d="M18 172c88-44 184-20 256 6s147 29 220-7v58c-82 39-170 33-254 4s-154-49-222-11z" fill="url(#wave)"/>
  <path d="M18 320c83-36 161-27 234 2 77 31 157 35 260-3v56c-96 37-179 31-260-1-76-30-146-38-234-5z" fill="url(#wave)"/>
  <text x="256" y="305" text-anchor="middle" font-family="Georgia, 'Times New Roman', serif" font-size="178" font-weight="700" fill="#f8f8f3">N</text>
  <text x="256" y="355" text-anchor="middle" font-family="Georgia, 'Times New Roman', serif" font-size="42" fill="#392d5a">Niramaya</text>
</svg>
